<svg width="412" height="412" viewBox="0 0 412 412" fill="none" xmlns="http://www.w3.org/2000/svg">
<circle cx="206" cy="206" r="206" fill="black"/>
<path d="M76.8165 174V159.664H87.1845V112.944H76.8165V98.608H110.737C120.891 98.608 128.657 100.4 134.033 103.984C139.409 107.483 142.097 112.517 142.097 119.088C142.097 122.928 141.201 126.256 139.409 129.072C137.702 131.888 135.227 134.107 131.985 135.728C135.995 136.837 139.067 138.885 141.201 141.872C143.334 144.859 144.401 148.656 144.401 153.264C144.401 159.92 142.182 165.04 137.745 168.624C133.393 172.208 127.035 174 118.673 174H76.8165ZM103.697 159.664H115.729C119.483 159.664 122.342 158.939 124.305 157.488C126.353 156.037 127.377 153.904 127.377 151.088C127.377 148.357 126.438 146.309 124.561 144.944C122.683 143.493 119.995 142.768 116.497 142.768H103.697V159.664ZM103.697 129.84H116.625C119.355 129.84 121.403 129.115 122.769 127.664C124.219 126.213 124.945 124.165 124.945 121.52C124.945 115.803 120.678 112.944 112.145 112.944H103.697V129.84ZM152.906 174V161.072H163.658V104.24L151.498 100.144L155.722 87.088L179.914 95.28V161.072H190.666V174H152.906ZM229.909 113.328C236.565 113.328 242.197 114.608 246.805 117.168C251.413 119.643 254.911 123.269 257.301 128.048C259.69 132.741 260.885 138.416 260.885 145.072C260.885 154.971 258.197 162.693 252.821 168.24C247.445 173.787 239.807 176.56 229.909 176.56C223.423 176.56 217.877 175.323 213.269 172.848C208.746 170.373 205.29 166.789 202.901 162.096C200.597 157.317 199.445 151.643 199.445 145.072C199.445 138.416 200.597 132.741 202.901 128.048C205.29 123.269 208.746 119.643 213.269 117.168C217.877 114.608 223.423 113.328 229.909 113.328ZM230.037 126.512C225.173 126.512 221.503 128.091 219.029 131.248C216.554 134.405 215.317 139.013 215.317 145.072C215.317 151.131 216.554 155.739 219.029 158.896C221.503 162.053 225.173 163.632 230.037 163.632C234.986 163.632 238.698 162.053 241.173 158.896C243.733 155.739 245.013 151.131 245.013 145.072C245.013 139.013 243.733 134.405 241.173 131.248C238.698 128.091 234.986 126.512 230.037 126.512ZM298.694 159.408C289.819 159.408 282.864 157.573 277.83 153.904C272.88 150.149 270.406 144.773 270.406 137.776C270.406 130.181 273.008 124.208 278.214 119.856C283.419 115.504 290.288 113.328 298.822 113.328C302.064 113.328 304.923 113.584 307.398 114.096C309.872 114.523 312.304 115.376 314.694 116.656L334.406 109.872L339.398 124.208L323.654 126.256C325.104 127.792 326.086 129.584 326.598 131.632C327.11 133.68 327.366 135.472 327.366 137.008C327.366 142.555 326 146.992 323.27 150.32C320.624 153.563 317.126 155.909 312.774 157.36C308.422 158.725 303.728 159.408 298.694 159.408ZM299.718 205.744C294.342 205.744 289.691 205.317 285.766 204.464C281.84 203.696 278.555 202.757 275.91 201.648C273.264 200.624 271.174 199.728 269.638 198.96L275.398 186.16C279.75 187.952 283.76 189.317 287.43 190.256C291.184 191.28 295.28 191.792 299.718 191.792C303.643 191.792 306.672 191.451 308.806 190.768C310.939 190.085 312.39 189.232 313.158 188.208C314.011 187.184 314.438 186.203 314.438 185.264C314.438 183.813 313.883 182.533 312.774 181.424C311.75 180.4 309.19 179.888 305.094 179.888H284.23V155.056L296.518 157.36V166.32H306.502C314.352 166.32 320.24 168.027 324.166 171.44C328.091 174.768 330.054 179.419 330.054 185.392C330.054 190.341 328.603 194.309 325.702 197.296C322.886 200.283 319.174 202.416 314.566 203.696C309.958 205.061 305.008 205.744 299.718 205.744ZM298.95 147.632C303.216 147.632 306.502 146.651 308.806 144.688C311.195 142.64 312.39 139.995 312.39 136.752C312.39 132.997 311.195 130.181 308.806 128.304C306.502 126.341 303.216 125.36 298.95 125.36C294.768 125.36 291.483 126.341 289.094 128.304C286.704 130.181 285.51 132.997 285.51 136.752C285.51 139.995 286.704 142.64 289.094 144.688C291.483 146.651 294.768 147.632 298.95 147.632ZM81.959 240.608H150.951V267.872H136.615V254.944H124.711V301.664H135.079V316H97.575V301.664H108.071V254.944H96.295V267.872H81.959V240.608ZM210.077 308.832C206.152 312.16 202.056 314.592 197.789 316.128C193.608 317.749 189.469 318.56 185.373 318.56C178.717 318.56 172.914 317.237 167.965 314.592C163.016 311.861 159.176 308.149 156.445 303.456C153.8 298.677 152.477 293.259 152.477 287.2C152.477 280.8 153.757 275.211 156.317 270.432C158.877 265.653 162.418 261.941 166.941 259.296C171.464 256.651 176.712 255.328 182.685 255.328C188.914 255.328 194.29 256.565 198.813 259.04C203.421 261.515 206.962 264.971 209.437 269.408C211.997 273.76 213.277 278.923 213.277 284.896C213.277 286.005 213.192 287.285 213.021 288.736C212.936 290.187 212.765 291.552 212.509 292.832H167.965C168.306 295.733 169.288 298.165 170.909 300.128C172.53 302.091 174.578 303.541 177.053 304.48C179.613 305.419 182.386 305.888 185.373 305.888C188.957 305.888 192.413 305.291 195.741 304.096C199.069 302.901 202.098 301.237 204.829 299.104L210.077 308.832ZM197.149 282.08C197.149 278.069 195.912 274.827 193.437 272.352C190.962 269.792 187.549 268.512 183.197 268.512C179.272 268.512 175.858 269.792 172.957 272.352C170.056 274.827 168.52 278.069 168.349 282.08H197.149ZM260.666 268.768C259.301 268.341 257.978 268.043 256.698 267.872C255.418 267.701 254.223 267.616 253.114 267.616C248.079 267.616 244.239 269.323 241.594 272.736C239.034 276.064 237.754 281.013 237.754 287.584C237.754 293.131 239.162 297.525 241.978 300.768C244.794 304.011 248.293 305.632 252.474 305.632C255.375 305.632 258.362 305.077 261.434 303.968C264.506 302.773 267.535 301.109 270.522 298.976L277.05 308.576C274.405 310.624 271.802 312.416 269.242 313.952C266.682 315.403 264.037 316.512 261.306 317.28C258.661 318.133 255.674 318.56 252.346 318.56C245.946 318.56 240.399 317.408 235.706 315.104C231.098 312.715 227.514 309.216 224.954 304.608C222.479 300 221.242 294.325 221.242 287.584C221.242 280.501 222.437 274.571 224.826 269.792C227.215 264.928 230.757 261.301 235.45 258.912C240.143 256.437 245.946 255.2 252.858 255.2C256.186 255.2 259.514 255.541 262.842 256.224C266.255 256.821 269.541 257.717 272.698 258.912L276.282 276.448L262.586 279.392L260.666 268.768ZM283.941 316V303.072H294.565V246.24L282.405 242.144L286.629 229.088L310.821 237.28V259.936C316.197 256.864 322.554 255.328 329.893 255.328C336.464 255.328 341.541 257.419 345.125 261.6C348.794 265.781 350.629 271.712 350.629 279.392V303.072H361.381V316H329.253V303.072H334.373V281.44C334.373 277.173 333.52 274.059 331.813 272.096C330.192 270.048 327.589 269.024 324.005 269.024C322.384 269.024 320.336 269.323 317.861 269.92C315.472 270.432 313.168 271.157 310.949 272.096V303.072H316.069V316H283.941Z" fill="white"/>
</svg>
